<svg xmlns="http://www.w3.org/2000/svg" viewBox="0 0 400 200" fill="none">
  <rect width="400" height="200" rx="8" fill="#1a1a2e"/>
  <text x="20" y="30" font-family="sans-serif" font-size="14" fill="#e0e0e0" font-weight="600">Dashboard Wireframe</text>

  <!-- Sidebar -->
  <rect x="10" y="40" width="80" height="150" rx="4" fill="#16213e"/>
  <rect x="18" y="52" width="64" height="6" rx="2" fill="#0f3460"/>
  <rect x="18" y="66" width="50" height="6" rx="2" fill="#0f3460"/>
  <rect x="18" y="80" width="58" height="6" rx="2" fill="#533483"/>
  <rect x="18" y="94" width="42" height="6" rx="2" fill="#0f3460"/>
  <rect x="18" y="108" width="55" height="6" rx="2" fill="#0f3460"/>

  <!-- Stat cards -->
  <rect x="100" y="40" width="70" height="45" rx="4" fill="#16213e"/>
  <rect x="180" y="40" width="70" height="45" rx="4" fill="#16213e"/>
  <rect x="260" y="40" width="70" height="45" rx="4" fill="#16213e"/>
  <rect x="340" y="40" width="50" height="45" rx="4" fill="#16213e"/>

  <!-- Chart area -->
  <rect x="100" y="95" width="290" height="95" rx="4" fill="#16213e"/>
  <polyline points="115,170 145,150 175,160 205,130 235,140 265,120 295,125 325,105 355,110 375,100"
    stroke="#533483" stroke-width="2" fill="none"/>
  <polyline points="115,175 145,165 175,170 205,155 235,160 265,150 295,145 325,140 355,135 375,130"
    stroke="#0f3460" stroke-width="2" fill="none"/>
</svg>
